<?xml version="1.0" standalone="no"?>
<!DOCTYPE svg PUBLIC "-//W3C//DTD SVG 20010904//EN"
 "http://www.w3.org/TR/2001/REC-SVG-20010904/DTD/svg10.dtd">
<svg version="1.0" xmlns="http://www.w3.org/2000/svg"
 width="237.000000pt" height="211.000000pt" viewBox="0 0 237.000000 211.000000"
 preserveAspectRatio="xMidYMid meet">

<g transform="translate(0.000000,211.000000) scale(0.100000,-0.100000)"
fill="#000000" stroke="none">
<path d="M601 1712 c-46 -25 -75 -81 -67 -127 13 -69 96 -120 158 -96 23 9 66
-7 348 -130 177 -76 330 -139 340 -139 10 0 23 6 29 13 22 27 119 269 114 287
-6 23 -80 53 -101 41 -9 -5 -33 -47 -53 -93 -23 -54 -41 -82 -50 -80 -8 2
-132 53 -275 115 -253 108 -263 113 -278 149 -30 66 -105 93 -165 60z m112
-64 c39 -46 6 -112 -57 -112 -45 0 -69 23 -69 65 0 69 82 99 126 47z"/>
<path d="M1688 1693 c-15 -9 -34 -34 -44 -55 -14 -32 -15 -44 -5 -78 11 -38 9
-45 -124 -358 -74 -176 -135 -328 -135 -339 0 -30 15 -39 157 -98 138 -58 151
-58 172 -6 24 57 13 72 -74 109 -44 18 -84 37 -88 41 -8 8 221 553 234 559 39
17 76 54 88 89 13 37 13 45 -3 80 -10 22 -30 47 -46 56 -36 22 -97 21 -132 0z
m121 -59 c12 -15 21 -34 21 -44 0 -33 -39 -70 -74 -70 -60 0 -93 66 -56 113
29 37 80 37 109 1z"/>
<path d="M1032 1688 c-19 -24 -45 -99 -36 -107 11 -10 292 -131 303 -131 11 0
53 98 49 111 -3 9 -235 117 -285 133 -12 4 -25 1 -31 -6z"/>
<path d="M690 1328 c-37 -60 -26 -78 71 -118 47 -19 87 -39 89 -43 2 -5 -48
-132 -111 -284 -104 -252 -117 -277 -150 -300 -91 -61 -63 -198 45 -219 43 -7
99 16 123 52 20 32 23 105 4 128 -10 12 13 76 124 345 102 246 134 334 127
347 -9 17 -253 123 -285 124 -9 0 -26 -15 -37 -32z m24 -811 c19 -25 19 -29 3
-61 -17 -37 -45 -51 -83 -42 -62 16 -69 106 -11 131 37 16 64 7 91 -28z"/>
<path d="M1720 1208 c-10 -24 -39 -90 -64 -148 -25 -57 -46 -110 -46 -117 0
-12 81 -53 105 -53 10 0 129 260 137 299 3 14 -72 59 -100 60 -7 1 -21 -18
-32 -41z"/>
<path d="M665 1180 c-11 -18 -125 -294 -125 -303 0 -11 90 -48 107 -45 16 3
145 296 137 309 -5 9 -91 49 -105 49 -4 0 -11 -5 -14 -10z"/>
<path d="M994 852 c-18 -11 -125 -277 -119 -294 8 -21 84 -50 102 -39 8 4 32
46 53 92 24 54 42 83 51 81 8 -2 132 -53 277 -115 247 -104 264 -113 277 -144
27 -63 115 -92 175 -57 80 48 79 161 -3 209 -22 13 -41 16 -82 11 -51 -6 -64
-1 -373 129 -177 74 -327 135 -334 135 -7 0 -18 -4 -24 -8z m803 -324 c29 -27
29 -65 1 -95 -45 -48 -121 -18 -121 47 0 64 72 93 120 48z"/>
<path d="M1069 583 c-11 -25 -18 -53 -17 -61 2 -8 69 -43 153 -78 116 -50 152
-61 160 -51 22 24 48 98 39 106 -10 10 -295 131 -307 131 -4 0 -17 -21 -28
-47z"/>
</g>
</svg>
