<?xml version="1.0" encoding="UTF-8"?>
<!DOCTYPE svg PUBLIC "-//W3C//DTD SVG 1.1//EN" "http://www.w3.org/Graphics/SVG/1.1/DTD/svg11.dtd">
<svg xmlns="http://www.w3.org/2000/svg" version="1.1" width="219px" height="208px" style="shape-rendering:geometricPrecision; text-rendering:geometricPrecision; image-rendering:optimizeQuality; fill-rule:evenodd; clip-rule:evenodd" xmlns:xlink="http://www.w3.org/1999/xlink">
<g><path style="opacity:1" fill="#fcfcfc" d="M -0.5,-0.5 C 72.5,-0.5 145.5,-0.5 218.5,-0.5C 218.5,68.8333 218.5,138.167 218.5,207.5C 145.5,207.5 72.5,207.5 -0.5,207.5C -0.5,138.167 -0.5,68.8333 -0.5,-0.5 Z"/></g>
<g><path style="opacity:1" fill="#060606" d="M 31.5,8.5 C 41.9705,8.07647 49.3038,12.7431 53.5,22.5C 76.5923,33.6998 100.092,44.0332 124,53.5C 125.261,53.2409 126.261,52.5742 127,51.5C 129.846,44.307 133.346,37.4736 137.5,31C 143.554,30.0006 148.22,32.0006 151.5,37C 147.31,49.904 142.143,62.404 136,74.5C 132.826,75.7279 129.659,75.5612 126.5,74C 99.9141,62.8047 73.2474,51.8047 46.5,41C 40.3902,40.912 34.3902,40.2453 28.5,39C 15.9076,27.6248 16.9076,17.4582 31.5,8.5 Z"/></g>
<g><path style="opacity:1" fill="#060606" d="M 176.5,11.5 C 188.858,8.70592 196.192,13.3726 198.5,25.5C 197.593,33.9817 193.26,39.9817 185.5,43.5C 174.087,67.58 163.754,92.08 154.5,117C 162.328,120.607 169.828,124.773 177,129.5C 177.401,133.316 176.734,136.983 175,140.5C 173.874,141.944 172.374,142.61 170.5,142.5C 157.627,138.599 145.294,133.432 133.5,127C 132.919,126.107 132.585,125.107 132.5,124C 142.89,96.159 154.057,68.659 166,41.5C 166.818,38.8929 167.318,36.2263 167.5,33.5C 164.5,23.5211 167.5,16.1877 176.5,11.5 Z"/></g>
<g><path style="opacity:1" fill="#070707" d="M 87.5,12.5 C 100.818,17.3232 113.818,22.9899 126.5,29.5C 127.223,35.4331 125.557,40.7664 121.5,45.5C 108.149,40.6585 95.1493,34.9918 82.5,28.5C 81.3823,22.3061 83.049,16.9728 87.5,12.5 Z"/></g>
<g><path style="opacity:1" fill="#f4f4f4" d="M 32.5,15.5 C 44.7098,15.7621 48.0431,21.2621 42.5,32C 31.427,36.5523 26.2603,33.0523 27,21.5C 28.3597,18.9774 30.193,16.9774 32.5,15.5 Z"/></g>
<g><path style="opacity:1" fill="#f8f8f8" d="M 178.5,17.5 C 186.907,16.7624 191.407,20.4291 192,28.5C 189.575,34.7952 185.075,36.9618 178.5,35C 176.714,34.2155 175.214,33.0488 174,31.5C 173.333,28.5 173.333,25.5 174,22.5C 175.707,20.9625 177.207,19.2959 178.5,17.5 Z"/></g>
<g><path style="opacity:1" fill="#060606" d="M 43.5,57.5 C 57.102,60.9821 70.102,66.1488 82.5,73C 83.0585,73.7247 83.3918,74.5581 83.5,75.5C 72.3302,104.505 61.1636,133.505 50,162.5C 51.3685,167.962 51.7019,173.629 51,179.5C 46.455,188.248 39.2883,191.415 29.5,189C 16.0379,178.391 16.3712,167.891 30.5,157.5C 41.8973,133.482 52.2306,108.982 61.5,84C 60.7282,82.779 59.7282,81.779 58.5,81C 51.7697,78.2178 45.2697,75.0511 39,71.5C 38.3333,69.1667 38.3333,66.8333 39,64.5C 40.7235,62.2833 42.2235,59.95 43.5,57.5 Z"/></g>
<g><path style="opacity:1" fill="#050505" d="M 180.5,72.5 C 186.519,73.3416 191.519,76.0083 195.5,80.5C 190.43,92.2083 185.264,103.875 180,115.5C 179.128,117.613 177.628,118.946 175.5,119.5C 170.306,118.734 166.306,116.234 163.5,112C 168.25,98.3442 173.917,85.1775 180.5,72.5 Z"/></g>
<g><path style="opacity:1" fill="#070707" d="M 37.5,80.5 C 43.6683,80.9173 48.6683,83.4173 52.5,88C 47.971,101.227 42.471,114.061 36,126.5C 30.0386,127.569 24.8719,125.903 20.5,121.5C 25.9058,107.693 31.5724,94.0265 37.5,80.5 Z"/></g>
<g><path style="opacity:1" fill="#060606" d="M 80.5,124.5 C 85.3635,124.758 90.0302,125.925 94.5,128C 120.007,138.725 145.674,149.058 171.5,159C 177.914,159.129 184.247,159.796 190.5,161C 197.94,167.265 199.44,174.765 195,183.5C 185.98,192.743 176.98,192.743 168,183.5C 167.117,180.898 165.617,178.731 163.5,177C 140.175,166.421 116.675,156.254 93,146.5C 91.7387,146.759 90.7387,147.426 90,148.5C 86.7549,155.324 83.2549,161.991 79.5,168.5C 73.3662,170.263 68.6995,168.429 65.5,163C 69.2517,149.666 74.2517,136.833 80.5,124.5 Z"/></g>
<g><path style="opacity:1" fill="#060606" d="M 94.5,154.5 C 107.968,159.77 121.301,165.436 134.5,171.5C 135.33,176.538 134.164,181.205 131,185.5C 129.274,186.576 127.441,186.743 125.5,186C 113.264,181.216 101.264,175.883 89.5,170C 89.2135,164.354 90.8801,159.188 94.5,154.5 Z"/></g>
<g><path style="opacity:1" fill="#f7f7f7" d="M 31.5,165.5 C 39.9717,163.95 44.4717,167.284 45,175.5C 41.8963,183.384 36.563,185.384 29,181.5C 24.9536,175.15 25.787,169.817 31.5,165.5 Z"/></g>
<g><path style="opacity:1" fill="#f9f9f9" d="M 177.5,165.5 C 187.039,164.869 191.206,169.203 190,178.5C 187.013,183.152 182.846,184.652 177.5,183C 172.845,180.103 171.345,175.937 173,170.5C 174.025,168.313 175.525,166.646 177.5,165.5 Z"/></g>
</svg>
