<?xml version="1.0" standalone="no"?>
<!DOCTYPE svg PUBLIC "-//W3C//DTD SVG 20010904//EN"
 "http://www.w3.org/TR/2001/REC-SVG-20010904/DTD/svg10.dtd">
<svg version="1.0" xmlns="http://www.w3.org/2000/svg"
 width="195.000000pt" height="237.000000pt" viewBox="0 0 195.000000 237.000000"
 preserveAspectRatio="xMidYMid meet">

<g transform="translate(0.000000,237.000000) scale(0.100000,-0.100000)"
fill="#000000" stroke="none">
<path d="M1225 2261 c-115 -52 -166 -187 -115 -299 15 -33 24 -42 37 -38 57
16 151 26 254 26 l117 0 12 36 c19 56 8 136 -26 191 -55 90 -182 129 -279 84z"/>
<path d="M495 2105 c-14 -13 -25 -36 -25 -50 0 -28 40 -75 64 -75 55 0 100 61
76 104 -12 24 -49 46 -76 46 -8 0 -26 -11 -39 -25z"/>
<path d="M1301 1809 c-232 -22 -343 -130 -395 -383 -32 -154 -18 -238 50 -303
54 -52 136 -80 284 -95 58 -6 111 -12 118 -14 14 -4 7 -81 -9 -99 -17 -18
-247 -18 -344 0 -49 9 -104 19 -121 22 l-32 5 -46 -138 c-25 -77 -46 -144 -46
-151 0 -42 420 -71 621 -43 187 27 289 126 348 340 40 142 20 272 -50 337 -54
50 -204 94 -359 105 -34 3 -35 4 -34 46 0 26 7 48 15 54 12 8 136 6 383 -5
l40 -2 43 130 c24 71 43 135 43 141 0 15 -12 19 -120 38 -109 19 -282 26 -389
15z"/>
<path d="M355 1785 c6 -2 125 -16 265 -30 140 -14 271 -28 290 -30 29 -4 41 1
74 30 l39 35 -339 -1 c-186 0 -334 -2 -329 -4z"/>
<path d="M265 1600 c-4 -6 6 -10 22 -10 15 -1 150 -14 298 -29 243 -25 271
-27 283 -13 6 9 12 26 12 39 l0 23 -304 0 c-193 0 -307 -4 -311 -10z"/>
<path d="M224 1422 c3 -5 38 -12 78 -16 40 -3 174 -17 298 -30 124 -13 226
-23 227 -23 0 1 3 18 5 37 l3 35 -308 3 c-172 1 -306 -2 -303 -6z"/>
<path d="M185 1244 c36 -7 649 -74 651 -71 1 1 -1 18 -5 37 l-7 35 -329 1
c-182 1 -321 0 -310 -2z"/>
<path d="M235 1064 c56 -10 778 -65 783 -60 3 3 -1 6 -9 6 -8 0 -36 14 -62 30
l-48 30 -342 -1 c-188 -1 -333 -3 -322 -5z"/>
<path d="M250 882 c-25 -5 382 -61 453 -61 31 -1 39 3 47 25 6 14 10 30 10 35
0 9 -464 11 -510 1z"/>
<path d="M141 706 c2 -2 65 -12 139 -21 74 -9 193 -25 265 -36 71 -10 133 -15
137 -11 4 4 10 22 14 39 l6 32 -283 1 c-155 0 -281 -1 -278 -4z"/>
<path d="M353 473 c-41 -71 -44 -160 -6 -228 39 -70 115 -115 193 -115 168 1
281 174 208 320 -17 33 -28 44 -43 43 -11 -1 -75 4 -142 12 -182 22 -177 23
-210 -32z"/>
<path d="M1283 418 c-12 -6 -27 -23 -33 -38 -24 -58 44 -120 99 -90 46 24 53
78 16 115 -26 27 -47 30 -82 13z"/>
</g>
</svg>
